<?xml version="1.0" encoding="utf-8"?><svg xmlns="http://www.w3.org/2000/svg"><symbol fill="none" viewBox="0 0 14 14" id="arrow" xmlns="http://www.w3.org/2000/svg"><path fill="currentColor" d="M3.793 1.293a1 1 0 0 1 1.414 0L9.5 5.586a1.996 1.996 0 0 1 0 2.828l-4.293 4.293a1 1 0 1 1-1.414-1.414L8.086 7 3.793 2.707a1 1 0 0 1 0-1.414"/></symbol><symbol fill="none" viewBox="0 0 14 14" id="audit" xmlns="http://www.w3.org/2000/svg"><path fill="currentColor" fill-rule="evenodd" d="M6.61 1.077c.22-.09.459-.101.684-.034l.096.034 3.889 1.585c.197.08.369.22.496.402s.204.4.221.629l.004.1v3.238c0 .979-.243 1.939-.704 2.78a5.2 5.2 0 0 1-1.912 1.997l-.148.084-1.863 1.012a.78.78 0 0 1-.666.038l-.08-.037-1.863-1.013A5.17 5.17 0 0 1 2.79 9.965a5.8 5.8 0 0 1-.788-2.753L2 7.03V3.794c0-.23.06-.453.172-.647.113-.193.274-.347.464-.445l.085-.04zm-.086 3.597L5.418 6.678a.65.65 0 0 0-.008.614q.076.143.206.226a.53.53 0 0 0 .283.083c.553 0 .903.594.636 1.078l-.011.02a.65.65 0 0 0-.053.451.6.6 0 0 0 .251.363.52.52 0 0 0 .413.07.56.56 0 0 0 .341-.262l1.106-2.003a.65.65 0 0 0 .008-.615.6.6 0 0 0-.206-.226.53.53 0 0 0-.283-.083.726.726 0 0 1-.636-1.078l.012-.02a.65.65 0 0 0 .062-.458.6.6 0 0 0-.253-.371.52.52 0 0 0-.42-.068.56.56 0 0 0-.342.275" clip-rule="evenodd"/></symbol><symbol fill="none" viewBox="0 0 14 14" id="balance" xmlns="http://www.w3.org/2000/svg"><path fill="currentColor" d="M5.2 9.1a3.9 3.9 0 1 1 7.8 0 3.9 3.9 0 0 1-7.8 0"/><path fill="currentColor" d="M4.9 1a3.9 3.9 0 0 1 3.838 3.214 4.9 4.9 0 0 0-4.524 4.524A3.9 3.9 0 0 1 4.899 1"/></symbol><symbol fill="none" viewBox="0 0 14 14" id="check" xmlns="http://www.w3.org/2000/svg"><path fill="currentColor" d="M12.086 3.293A1 1 0 1 1 13.5 4.707L7.207 11a2 2 0 0 1-2.828 0L1.086 7.707A1 1 0 1 1 2.5 6.293l3.293 3.293z"/></symbol><symbol fill="none" viewBox="0 0 26 26" id="discord" xmlns="http://www.w3.org/2000/svg"><path fill="currentColor" d="M18.561 8.006c-.012-.01-.03-.012-.045-.019A13 13 0 0 0 15.285 7a.1.1 0 0 0-.03.005c-.018.008-.029.026-.038.044l-.043.078a1.18 1.18 0 0 1-1.134.621 12.5 12.5 0 0 0-1.96-.01 1.43 1.43 0 0 1-1.321-.715c-.018-.036-.074-.02-.113-.013a13.2 13.2 0 0 0-3.177.98c-.011.005-.023.007-.033.015l-.012.015c-2.068 3.049-2.639 6.016-2.357 8.952 0 .031.036.047.06.065a13.3 13.3 0 0 0 3.956 1.96c.037.012.065-.031.088-.063.29-.398.553-.817.78-1.257.015-.03 0-.06-.03-.067a9.5 9.5 0 0 1-1.25-.585c-.057-.028.019-.101.07-.14q.063-.049.128-.096c.03-.023.065-.058.1-.042 2.62 1.178 5.447 1.178 8.038 0a.05.05 0 0 1 .053.008c.084.068.168.127.251.195.055.04-.037.1-.096.134-.37.209-.759.38-1.16.533-.054.013-.018.092.008.14.222.41.47.802.735 1.175.027.038.066.08.11.065a13.3 13.3 0 0 0 3.962-1.96c.025-.018.06-.034.06-.065.335-3.392-.554-6.336-2.355-8.951zm-8.214 7.174c-.784 0-1.44-.712-1.44-1.59 0-.876.64-1.589 1.44-1.589.808 0 1.448.72 1.44 1.59 0 .877-.64 1.59-1.44 1.59m5.31 0c-.784 0-1.44-.712-1.44-1.59 0-.876.64-1.589 1.44-1.589.809 0 1.449.72 1.441 1.59 0 .877-.632 1.59-1.44 1.59"/></symbol><symbol fill="none" viewBox="0 0 15 14" id="exit" xmlns="http://www.w3.org/2000/svg"><path fill="currentColor" d="M11.293 1.293a1 1 0 1 1 1.414 1.414L8.414 7l4.293 4.293a1 1 0 1 1-1.414 1.414L7 8.414l-4.293 4.293a1 1 0 1 1-1.414-1.414L5.586 7 1.293 2.707a1 1 0 1 1 1.414-1.414L7 5.586z"/></symbol><symbol fill="none" viewBox="0 0 14 14" id="fee" xmlns="http://www.w3.org/2000/svg"><path fill="currentColor" fill-rule="evenodd" d="M8.944 1c.877 0 1.589.767 1.589 1.714v6.981c.325 0 .467-.203.467-.553V4.856c0-.595.448-1.078 1-1.078s1 .483 1 1.078v4.286c0 1.542-1.16 2.792-2.589 2.792-.007.377-.312 1.116-1.467 1.063H2.589C1.71 12.997 1 12.23 1 11.283v-8.57C1 1.768 1.711 1 2.589 1zM2.589 3.57c0-.473.355-.856.794-.856h4.766c.439 0 .795.383.795.856v1.714c0 .474-.356.858-.795.858H3.383c-.439 0-.794-.385-.794-.858z" clip-rule="evenodd"/></symbol><symbol fill="none" viewBox="0 0 26 26" id="github" xmlns="http://www.w3.org/2000/svg"><path fill="currentColor" d="M12.999 5C8.582 5 5 8.672 5 13.203c0 3.623 2.292 6.697 5.472 7.783.4.075.546-.178.546-.396 0-.195-.007-.71-.011-1.395-2.225.496-2.695-1.1-2.695-1.1-.363-.947-.888-1.2-.888-1.2-.727-.508.054-.498.054-.498.803.059 1.225.846 1.225.846.714 1.253 1.873.891 2.329.681.072-.53.279-.892.508-1.097-1.776-.207-3.644-.91-3.644-4.053 0-.896.312-1.628.824-2.202-.083-.207-.357-1.042.078-2.17 0 0 .672-.22 2.2.84a7.5 7.5 0 0 1 2.003-.275 7.5 7.5 0 0 1 2.003.276c1.527-1.06 2.198-.84 2.198-.84.436 1.13.162 1.963.08 2.17.513.574.822 1.306.822 2.202 0 3.15-1.87 3.844-3.652 4.047.287.253.543.754.543 1.519 0 1.096-.01 1.981-.01 2.25 0 .22.144.474.55.394C18.71 19.898 21 16.825 21 13.203 21 8.673 17.418 5 12.999 5"/></symbol><symbol fill="none" viewBox="0 0 20 20" id="search" xmlns="http://www.w3.org/2000/svg"><path fill="currentColor" d="M16.016 10.111A6.113 6.113 0 0 0 5.583 5.79a6.111 6.111 0 1 0 10.433 4.321m2 0a8.1 8.1 0 0 1-.618 3.104 8 8 0 0 1-1.097 1.879l2.199 2.199a1 1 0 1 1-1.414 1.414l-2.2-2.2a8.1 8.1 0 0 1-4.982 1.716 8.111 8.111 0 1 1 8.112-8.112"/></symbol><symbol fill="none" viewBox="0 0 14 14" id="switch" xmlns="http://www.w3.org/2000/svg"><path stroke="currentColor" stroke-linecap="round" stroke-linejoin="round" stroke-width="2" d="M1.5 7h11m0 0L7 12.5M12.5 7 7 1.5"/></symbol><symbol fill="none" viewBox="0 0 26 26" id="tg" xmlns="http://www.w3.org/2000/svg"><path fill="currentColor" fill-rule="evenodd" d="M18.446 7.285a1.16 1.16 0 0 1 1.128.146c.157.12.278.277.35.457.073.18.094.374.061.564l-1.692 9.876c-.165.953-1.251 1.499-2.16 1.024a44 44 0 0 1-2.903-1.646c-.507-.32-2.062-1.343-1.87-2.07.163-.623 2.776-2.962 4.268-4.353.586-.546.319-.861-.373-.359-1.718 1.248-4.476 3.145-5.388 3.68-.805.47-1.224.55-1.726.47-.915-.146-1.763-.373-2.456-.65-.936-.373-.89-1.61 0-1.97z" clip-rule="evenodd"/></symbol><symbol fill="none" viewBox="0 0 14 14" id="time" xmlns="http://www.w3.org/2000/svg"><path fill="currentColor" d="M7 1C3.692 1 1 3.692 1 7s2.692 6 6 6 6-2.692 6-6-2.692-6-6-6m3.45 6a.6.6 0 0 1-.6.6H7.4a1 1 0 0 1-1-1V4a.6.6 0 0 1 1.2 0v1.4a1 1 0 0 0 1 1h1.25a.6.6 0 0 1 .6.6"/></symbol><symbol fill="none" viewBox="0 0 26 26" id="x" xmlns="http://www.w3.org/2000/svg"><path fill="currentColor" d="M17.025 6.656h2.147l-4.69 5.374L20 19.344h-4.32l-3.386-4.435-3.87 4.435H6.275l5.016-5.75L6 6.657h4.43l3.056 4.053zm-.755 11.4h1.19L9.78 7.877H8.504z"/></symbol><symbol fill="none" viewBox="0 0 26 26" id="youtube" xmlns="http://www.w3.org/2000/svg"><path fill="currentColor" d="M11.4 15.571 15.552 13 11.4 10.429zm9.248-6.711c.104.403.176.943.224 1.629.056.685.08 1.277.08 1.791L21 13c0 1.877-.128 3.257-.352 4.14-.2.771-.664 1.269-1.384 1.483-.376.111-1.064.188-2.12.24a50 50 0 0 1-2.872.086L13 19c-3.352 0-5.44-.137-6.264-.377-.72-.214-1.184-.712-1.384-1.483-.104-.403-.176-.943-.224-1.629a22 22 0 0 1-.08-1.791L5 13c0-1.877.128-3.257.352-4.14.2-.771.664-1.269 1.384-1.483.376-.111 1.064-.188 2.12-.24a50 50 0 0 1 2.872-.086L13 7c3.352 0 5.44.137 6.264.377.72.214 1.184.712 1.384 1.483"/></symbol></svg>
